<mxfile host="app.diagrams.net" agent="Mozilla/5.0 (Windows NT 10.0; Win64; x64) AppleWebKit/537.36 (KHTML, like Gecko) Chrome/128.0.0.0 Safari/537.36 Edg/128.0.0.0" version="24.7.12">
  <diagram name="Page-1" id="Xy09rb_q7cz2XLX96C8-">
    <mxGraphModel dx="533" dy="1233" grid="1" gridSize="10" guides="1" tooltips="1" connect="1" arrows="1" fold="1" page="0" pageScale="1" pageWidth="850" pageHeight="1100" math="0" shadow="0">
      <root>
        <mxCell id="0" />
        <mxCell id="1" parent="0" />
        <mxCell id="WlDMIR47eIO4SdZh8Jrh-3" style="edgeStyle=none;curved=1;rounded=0;orthogonalLoop=1;jettySize=auto;html=1;exitX=0.5;exitY=1;exitDx=0;exitDy=0;fontSize=12;startSize=8;endSize=8;" edge="1" parent="1" source="WlDMIR47eIO4SdZh8Jrh-1">
          <mxGeometry relative="1" as="geometry">
            <mxPoint x="205" y="-77" as="targetPoint" />
          </mxGeometry>
        </mxCell>
        <mxCell id="WlDMIR47eIO4SdZh8Jrh-1" value="" style="ellipse;whiteSpace=wrap;html=1;" vertex="1" parent="1">
          <mxGeometry x="122" y="-215" width="165" height="70" as="geometry" />
        </mxCell>
        <mxCell id="WlDMIR47eIO4SdZh8Jrh-8" style="edgeStyle=none;curved=1;rounded=0;orthogonalLoop=1;jettySize=auto;html=1;fontSize=12;startSize=8;endSize=8;" edge="1" parent="1" source="WlDMIR47eIO4SdZh8Jrh-4">
          <mxGeometry relative="1" as="geometry">
            <mxPoint x="204.5" y="41" as="targetPoint" />
          </mxGeometry>
        </mxCell>
        <mxCell id="WlDMIR47eIO4SdZh8Jrh-4" value="" style="rounded=0;whiteSpace=wrap;html=1;" vertex="1" parent="1">
          <mxGeometry x="144.5" y="-76" width="120" height="60" as="geometry" />
        </mxCell>
        <mxCell id="WlDMIR47eIO4SdZh8Jrh-5" value="Pradzia" style="text;html=1;align=center;verticalAlign=middle;whiteSpace=wrap;rounded=0;fontSize=16;" vertex="1" parent="1">
          <mxGeometry x="174.5" y="-195" width="60" height="30" as="geometry" />
        </mxCell>
        <mxCell id="WlDMIR47eIO4SdZh8Jrh-6" value="Ivesti a, b" style="text;html=1;align=center;verticalAlign=middle;whiteSpace=wrap;rounded=0;fontSize=16;" vertex="1" parent="1">
          <mxGeometry x="154" y="-61" width="100" height="30" as="geometry" />
        </mxCell>
        <mxCell id="WlDMIR47eIO4SdZh8Jrh-9" value="" style="rounded=0;whiteSpace=wrap;html=1;" vertex="1" parent="1">
          <mxGeometry x="144" y="43" width="120" height="60" as="geometry" />
        </mxCell>
        <mxCell id="WlDMIR47eIO4SdZh8Jrh-13" style="edgeStyle=none;curved=1;rounded=0;orthogonalLoop=1;jettySize=auto;html=1;fontSize=12;startSize=8;endSize=8;exitX=0.5;exitY=1;exitDx=0;exitDy=0;" edge="1" parent="1" source="WlDMIR47eIO4SdZh8Jrh-9">
          <mxGeometry relative="1" as="geometry">
            <mxPoint x="204.5" y="155" as="targetPoint" />
            <mxPoint x="205" y="109" as="sourcePoint" />
          </mxGeometry>
        </mxCell>
        <mxCell id="WlDMIR47eIO4SdZh8Jrh-10" value="c=a+b" style="text;html=1;align=center;verticalAlign=middle;whiteSpace=wrap;rounded=0;fontSize=16;" vertex="1" parent="1">
          <mxGeometry x="174.5" y="58" width="60" height="30" as="geometry" />
        </mxCell>
        <mxCell id="WlDMIR47eIO4SdZh8Jrh-18" style="edgeStyle=none;curved=1;rounded=0;orthogonalLoop=1;jettySize=auto;html=1;exitX=0.5;exitY=1;exitDx=0;exitDy=0;fontSize=12;startSize=8;endSize=8;" edge="1" parent="1" source="WlDMIR47eIO4SdZh8Jrh-15">
          <mxGeometry relative="1" as="geometry">
            <mxPoint x="204" y="266" as="targetPoint" />
          </mxGeometry>
        </mxCell>
        <mxCell id="WlDMIR47eIO4SdZh8Jrh-15" value="" style="shape=parallelogram;perimeter=parallelogramPerimeter;whiteSpace=wrap;html=1;fixedSize=1;" vertex="1" parent="1">
          <mxGeometry x="144" y="155" width="120" height="60" as="geometry" />
        </mxCell>
        <mxCell id="WlDMIR47eIO4SdZh8Jrh-16" value="Isvesti c" style="text;html=1;align=center;verticalAlign=middle;whiteSpace=wrap;rounded=0;fontSize=16;" vertex="1" parent="1">
          <mxGeometry x="174.5" y="170" width="60" height="30" as="geometry" />
        </mxCell>
        <mxCell id="WlDMIR47eIO4SdZh8Jrh-19" value="" style="ellipse;whiteSpace=wrap;html=1;" vertex="1" parent="1">
          <mxGeometry x="117" y="268" width="174" height="80" as="geometry" />
        </mxCell>
        <mxCell id="WlDMIR47eIO4SdZh8Jrh-20" value="Pabaiga" style="text;html=1;align=center;verticalAlign=middle;whiteSpace=wrap;rounded=0;fontSize=16;" vertex="1" parent="1">
          <mxGeometry x="174" y="293" width="60" height="30" as="geometry" />
        </mxCell>
      </root>
    </mxGraphModel>
  </diagram>
</mxfile>
